<?xml version="1.0" encoding="utf-8"?>
<svg version="1.1" id="Arrière-plan__x2B__Seuil_1_xA0_Image_1_"
	 xmlns="http://www.w3.org/2000/svg" xmlns:xlink="http://www.w3.org/1999/xlink" x="0px" y="0px" viewBox="-166 174 306 293"
	 style="enable-background:new -166 174 306 293;" xml:space="preserve">
<style type="text/css">
	.st0{fill:#000;}
</style>
<g>
	<path class="st0" d="M63.5,248c11.5,0,23,0.1,34.5,0c4.1,0,4.4,0.7,3,4.8c-3.1,8.8-7.5,17.1-10.2,26.1c-1.2,4.2-3.4,7.4-9.4,7.3
		c-21-0.4-42-0.2-63-0.2c-1.8,0-3.6-0.1-5.4-0.4c-2.9-0.5-5,0.9-5.9,3.2c-6.3,15.9-11.8,32.1-18.6,47.8c-4.9,11.2-9.2,22.7-14,34
		c-3.5,8.1-7.2,16.3-9.7,24.8c-0.9,3.1-3.3,4.7-6.7,4.7c-17.7,0-35.3-0.1-53,0c-3.7,0-5-1.5-3.7-4.9c2.1-5.6,4.3-11.1,6.6-16.7
		c3.6-8.8,7.3-17.7,11-26.5c3.5-8.5,10.3-14.6,16-21.4c14.4-17,30.7-32.4,46.8-47.8c10-9.6,20.9-18.4,32-26.7c1.3-1,2.5-2.2,3.7-3.2
		c3.7-2.9,7.5-5.1,12.5-5C41.2,248.1,52.4,248,63.5,248z"/>
	<path class="st0" d="M81.2,198.9c4.9-0.5,10.5,1.8,14.3,7.3c3.4,4.9,3.4,10.6,2.5,16.3c-0.9,5.3-2,10.5-4.1,15.5
		c-0.6,1.5-1.2,3-2.5,4.2c-0.9,0.7-1.8,1.2-2.7,0.7c-1-0.6-0.9-1.7-0.3-2.6c3-4.8,2.7-10.1,2.6-15.3c-0.1-5.7-2.6-8.3-8.3-8.8
		c-8.5-0.7-16.2,1.9-23.6,5.5c-19,9.3-36.3,21.1-52.7,34.4c-9.8,8-19.6,16-29,24.5c-9.4,8.6-18.2,17.8-27.2,26.9
		c-17.5,17.6-33.2,36.8-47.6,56.9c-7.2,10-13.1,20.9-17.7,32.4c-1.4,3.4-2.6,7.1-2.8,10.8c-0.7,11.1,5.3,15.6,16.6,13.2
		c4.2-0.9,8.3-2.6,12.4-4.2c1.9-0.7,2.6,0,3.4,1.6c0.9,1.8-0.2,2.5-1.4,3c-10.9,4.2-21.5,8.8-33.1,11.4
		c-17.4,3.9-29.6-8.3-24.7-26.2c5.6-20.3,15.9-37.9,27.8-54.9c10.6-15.1,22.1-29.7,34.6-43.1c14.1-15.2,28.9-29.7,44.7-43.3
		C-25,253.9-12,243.5,1.7,234c15.4-10.8,31.5-20.6,49-27.8C59.8,202.5,69.2,199.1,81.2,198.9z"/>
	<path class="st0" d="M66,297c-7.7,0-15.3-0.1-23,0c-6.6,0.1-13.2,0.7-19.8,0.9c-2.4,0.1-3.1,1.5-3.8,3.2
		c-5.2,13-9.9,26.1-15.7,38.8c-2.8,6.2-5.5,12.4-8.3,18.6c-3.8,8.3-6.2,17.4-9.5,26c-3,7.9-6.9,15.5-9.5,23.5
		c-0.9,2.8-3.3,3.9-6.2,3.9c-18.5,0-37,0-55.5,0c-4.6,0-7.3-3.3-9.3-6.5c-1.7-2.7,1.1-3.5,3.5-3.5c9.7,0,19.3,0,29,0
		c7.8,0,15.7-0.1,23.5,0c3.5,0.1,5.4-1.6,6.6-4.7c2.5-6.5,5.2-13,7.6-19.5c5.3-14,11.2-27.7,16.6-41.6c4.3-10.8,8.5-21.7,13.3-32.4
		c1.5-3.3,3.7-6.4,4.2-9.9c0.7-4.6,3.1-5.1,6.9-5.1c22.2,0.1,44.3-0.2,66.5,0.2c5.6,0.1,8.4-1.8,10.2-6.8c3.1-8.7,6.5-17.2,9.9-25.8
		c1-2.6,2.7-3.5,5.2-1.6c5.3,4,6.1,5.8,3.5,12.3c-3.5,8.9-7.4,17.6-10.9,26.5c-1,2.6-2.4,3.4-5.1,3.3C86,296.9,76,297,66,297z"/>
	<path class="st0" d="M-27.1,248.8c-0.9,2.7-3.5,3.6-5.3,5.3c-7.8,7.3-16.6,13.7-23.8,21.7c-2.1,2.3-4.1,4.6-6.6,6.5
		c-2.8,2.1-5.7,4-9.7,3.9c-17.6-0.3-35.3-0.1-52.9-0.1c-5.5,0-7-2-5-7c3.8-9.3,7.7-18.6,11.5-27.9c0.8-2,2.2-3.1,4.5-3.1
		c28.8,0.1,57.6,0.1,86.4,0.1C-27.8,248.1-27.5,248.4-27.1,248.8z"/>
	<path class="st0" d="M-100,289c8.3,0,16.7,0,25,0c1,0,2.5-0.6,2.9,1.1c0.3,1.2-0.9,1.5-1.4,2.2c-3,3.9-6.7,5.6-11.7,5.8
		c-9.8,0.3-19.6-1.6-29.3-0.9c-5,0.4-8.7-0.4-11.6-4.7c-0.6-0.8-2.3-0.9-1.8-2.5c0.6-1.8,2.3-1,3.4-1C-116.3,289-108.1,289-100,289z
		"/>
</g>
</svg>
